<?xml version="1.0" encoding="UTF-8"?>
<svg version="1.1" xmlns="http://www.w3.org/2000/svg" width="512" height="512">
<path d="M0 0 C1.45058807 0.00273422 1.45058807 0.00273422 2.93048096 0.00552368 C17.243695 0.05090755 31.23971879 0.47323058 45.3125 3.3125 C46.21436035 3.48942383 47.1162207 3.66634766 48.04541016 3.84863281 C54.51849895 5.14751287 60.92138488 6.65907126 67.3125 8.3125 C68.13250488 8.52213379 68.95250977 8.73176758 69.79736328 8.94775391 C110.73432636 19.65383706 148.00708888 42.03876245 178.3125 71.3125 C178.93334473 71.91143066 179.55418945 72.51036133 180.19384766 73.12744141 C188.09161802 80.78798212 195.67483652 88.51111599 202.3125 97.3125 C202.79928223 97.95525879 203.28606445 98.59801758 203.78759766 99.26025391 C215.40302889 114.68749484 225.0822624 130.85257673 233.3125 148.3125 C233.6125293 148.94446289 233.91255859 149.57642578 234.22167969 150.22753906 C247.84498304 179.21234259 256.34711135 211.9865356 256.515625 244.10546875 C256.52263931 245.00605515 256.52965363 245.90664154 256.53688049 246.83451843 C256.55427809 249.72306381 256.56073227 252.61140416 256.5625 255.5 C256.56351212 256.98055878 256.56351212 256.98055878 256.56454468 258.49102783 C256.54881228 272.96218559 256.18350014 287.08244611 253.3125 301.3125 C253.13557617 302.21436035 252.95865234 303.1162207 252.77636719 304.04541016 C251.47752189 310.51832573 249.97073805 316.92270862 248.3125 323.3125 C248.09754883 324.14313965 247.88259766 324.9737793 247.66113281 325.82958984 C238.94171926 358.70660133 222.87940289 390.01221193 201.3125 416.3125 C200.88598145 416.84053223 200.45946289 417.36856445 200.02001953 417.91259766 C188.0737785 432.64234358 174.56825563 446.98842904 159.3125 458.3125 C158.67554199 458.79348145 158.03858398 459.27446289 157.38232422 459.77001953 C141.97122791 471.37677663 125.80258386 481.16995929 108.3125 489.3125 C107.1376001 489.85970703 107.1376001 489.85970703 105.93896484 490.41796875 C72.57853093 505.75369283 37.29198184 512.7679832 0.6875 512.625 C-0.28205627 512.62317719 -1.25161255 512.62135437 -2.25054932 512.61947632 C-16.58229259 512.57412737 -30.59645512 512.15545422 -44.6875 509.3125 C-45.58936035 509.13557617 -46.4912207 508.95865234 -47.42041016 508.77636719 C-53.89349895 507.47748713 -60.29638488 505.96592874 -66.6875 504.3125 C-67.50750488 504.10286621 -68.32750977 503.89323242 -69.17236328 503.67724609 C-120.56141499 490.23766925 -169.45912045 457.68145467 -201.6875 415.3125 C-202.09887207 414.78285645 -202.51024414 414.25321289 -202.93408203 413.70751953 C-211.12790929 403.13102552 -218.02269206 391.89976207 -224.6875 380.3125 C-225.06503418 379.66877441 -225.44256836 379.02504883 -225.83154297 378.36181641 C-240.49579594 353.25556837 -249.47538248 323.98869265 -253.6875 295.3125 C-253.86482666 294.10787109 -254.04215332 292.90324219 -254.22485352 291.66210938 C-255.82382494 280.0048269 -256.04590972 268.44063934 -256 256.6875 C-255.99726578 255.23316559 -255.99726578 255.23316559 -255.99447632 253.74945068 C-255.94912737 239.41770741 -255.53045422 225.40354488 -252.6875 211.3125 C-252.51057617 210.41063965 -252.33365234 209.5087793 -252.15136719 208.57958984 C-246.88342242 182.32630036 -238.19730755 157.96784022 -225.6875 134.3125 C-225.34638184 133.66216797 -225.00526367 133.01183594 -224.65380859 132.34179688 C-208.93174701 102.61121 -185.49302239 74.70239529 -158.6875 54.3125 C-158.15785645 53.90112793 -157.62821289 53.48975586 -157.08251953 53.06591797 C-141.83614598 41.25423906 -125.19535266 31.38383563 -107.6875 23.3125 C-106.90858398 22.9505957 -106.12966797 22.58869141 -105.32714844 22.21582031 C-87.92057303 14.2119344 -70.10525296 8.50598801 -51.375 4.5 C-50.47031982 4.3050293 -49.56563965 4.11005859 -48.63354492 3.90917969 C-32.50290878 0.65753248 -16.41407027 -0.06440835 0 0 Z " fill="#000000" transform="translate(255.6875,-0.3125)"/>
<path d="M0 0 C1.01320312 -0.01417969 2.02640625 -0.02835937 3.0703125 -0.04296875 C6.10642325 0.20651667 7.46056929 0.34088019 9.875 2.1875 C11.50516258 4.68828348 12.92444905 7.11924523 14.3125 9.75 C14.73789063 10.53576416 15.16328125 11.32152832 15.6015625 12.13110352 C20.41075811 21.06652695 25.06594744 30.0860212 29.72265625 39.1015625 C31.9996399 43.50778919 34.30352767 47.89820425 36.63208008 52.27734375 C47.81005017 73.3247563 58.16200851 94.72574213 68.11425781 116.375 C71.4348963 123.57973909 74.81640524 130.75627766 78.1875 137.9375 C78.85932666 139.36945065 79.53112117 140.80141637 80.20288086 142.23339844 C81.75968882 145.55169768 83.31713912 148.86969492 84.875 152.1875 C89.51931261 145.49515265 93.56895446 138.56761477 97.5 131.4375 C98.74270011 129.20008217 99.98620178 126.96310936 101.23046875 124.7265625 C101.84583496 123.61958008 102.46120117 122.51259766 103.09521484 121.37207031 C105.63260023 116.83192559 108.220087 112.32136983 110.8125 107.8125 C133.94305541 68.25109303 133.94305541 68.25109303 153.9375 27.0625 C154.25388428 26.32966797 154.57026855 25.59683594 154.89624023 24.84179688 C156.65419615 20.50844852 156.875 18.08112527 156.875 13.1875 C142.025 12.6925 142.025 12.6925 126.875 12.1875 C125.49374982 9.42499964 125.68420694 7.24018901 125.875 4.1875 C128.36369188 1.69880812 129.83399242 1.94072816 133.23088074 1.90533447 C134.34913994 1.9090506 134.34913994 1.9090506 135.48999023 1.9128418 C136.66825882 1.9051754 136.66825882 1.9051754 137.87033081 1.89735413 C140.47482864 1.88341946 143.079063 1.88441781 145.68359375 1.88671875 C147.48958943 1.88283387 149.29558419 1.87849963 151.10157776 1.87373352 C154.89042113 1.86626292 158.67917134 1.86656859 162.46801758 1.87182617 C167.32848123 1.87762115 172.18856387 1.86069327 177.0489645 1.8374815 C180.77983335 1.82276438 184.51061003 1.8218697 188.24150276 1.82499123 C190.03369972 1.82447697 191.8259017 1.81921971 193.6180706 1.80917931 C196.12250543 1.79687152 198.62619277 1.80357216 201.13061523 1.81518555 C201.87409714 1.80754181 202.61757904 1.79989807 203.3835907 1.79202271 C206.30537591 1.82203868 208.38649195 1.87228851 210.8785553 3.4803009 C212.56307061 6.36636474 211.52564714 9.05256377 210.875 12.1875 C208.17119494 13.08876835 206.46119086 13.33185068 203.671875 13.3984375 C202.85589844 13.42679688 202.03992188 13.45515625 201.19921875 13.484375 C199.49890462 13.53597786 197.79835515 13.58038721 196.09765625 13.6171875 C190.17939176 13.84016764 185.00708184 14.42902934 180.35839844 18.52319336 C175.56805071 23.70853191 172.30891227 30.00688656 168.875 36.125 C168.21628012 37.2851605 167.55667661 38.44481968 166.89624023 39.60400391 C165.88074816 41.38660624 164.86579853 43.16949184 163.85362244 44.95397949 C160.60063281 50.6877698 157.27274145 56.37632007 153.9375 62.0625 C148.90982913 70.6599168 143.93726164 79.28791947 139 87.9375 C138.66654572 88.52157623 138.33309143 89.10565247 137.98953247 89.70742798 C134.60965566 95.62885808 131.23491052 101.55318944 127.86613464 107.48094177 C101.66402141 153.57548069 101.66402141 153.57548069 97.30105591 159.22589111 C95.22675659 163.53376099 95.46436123 167.45237226 95.50268555 172.17504883 C95.49903488 173.17729996 95.49538422 174.17955109 95.49162292 175.21217346 C95.48352195 178.52313216 95.49712705 181.83360065 95.51171875 185.14453125 C95.51223753 187.44992574 95.51171913 189.75532067 95.51020813 192.06071472 C95.51029784 196.8934896 95.52072305 201.72609763 95.53881836 206.55883789 C95.56146709 212.74255053 95.5620563 218.92601858 95.55530071 225.10976124 C95.5519524 229.87194477 95.55860774 234.63407294 95.56842995 239.39624596 C95.57227021 241.67553098 95.57343504 243.95482218 95.5718441 246.23410988 C95.57147163 249.42678079 95.58414611 252.61914319 95.6003418 255.81176758 C95.59786438 256.74762695 95.59538696 257.68348633 95.59283447 258.64770508 C95.64707946 265.37658892 95.95455645 271.56102372 100.04785156 277.15917969 C103.65650222 279.74818397 105.69872482 279.75400644 110.109375 279.640625 C110.78800598 279.63117859 111.46663696 279.62173218 112.16583252 279.61199951 C114.320139 279.57756585 116.47162688 279.50878142 118.625 279.4375 C120.79226892 279.38757841 122.95951986 279.34468532 125.12701416 279.30584717 C127.08333073 279.26736666 129.03926581 279.21077189 130.99511719 279.15332031 C133.875 279.1875 133.875 279.1875 134.875 280.1875 C135.14814815 285.92361111 135.14814815 285.92361111 134.875 288.1875 C132.38404495 290.67845505 131.64168866 290.43844925 128.20617676 290.44146729 C127.22186172 290.44710693 126.23754669 290.45274658 125.22340393 290.45855713 C124.13970016 290.45450867 123.0559964 290.45046021 121.93945312 290.44628906 C120.8012059 290.4497937 119.66295868 290.45329834 118.49021912 290.45690918 C114.71216812 290.46574149 110.93430303 290.45987197 107.15625 290.453125 C104.54073043 290.45447122 101.9252111 290.45641138 99.30969238 290.45892334 C93.82183807 290.46256453 88.33403755 290.45775991 82.84619141 290.44824219 C76.49662545 290.43735731 70.14718791 290.44088278 63.79762506 290.451895 C57.69579008 290.46205503 51.59401216 290.46099177 45.49217224 290.45513153 C42.89253217 290.45379349 40.29288884 290.45544812 37.69325256 290.46009064 C34.06559455 290.46514665 30.4381862 290.45745849 26.81054688 290.44628906 C25.18499123 290.45236176 25.18499123 290.45236176 23.52659607 290.45855713 C22.54228104 290.45291748 21.557966 290.44727783 20.54382324 290.44146729 C19.68546623 290.44071323 18.82710922 290.43995918 17.94274139 290.43918228 C15.875 290.1875 15.875 290.1875 13.875 288.1875 C13.52454906 285.45398267 13.41328376 283.86268059 14.99291992 281.55273438 C17.7446348 279.55667917 19.92878293 279.80184093 23.30078125 279.78125 C24.57244141 279.75933594 25.84410156 279.73742187 27.15429688 279.71484375 C28.49868551 279.70405333 29.84308872 279.69495365 31.1875 279.6875 C33.80871873 279.66957276 36.42988799 279.63877798 39.05078125 279.59375 C40.21520752 279.58666016 41.37963379 279.57957031 42.5793457 279.57226562 C46.27608481 279.14067359 48.70559382 278.11080734 51.875 276.1875 C53.49936871 272.93876258 53.02222492 269.36715506 53.02026367 265.79736328 C53.02362228 264.92877182 53.0269809 264.06018036 53.03044128 263.16526794 C53.03997613 260.27943507 53.04189638 257.39366017 53.04296875 254.5078125 C53.04618213 252.49917578 53.04954627 250.4905393 53.05305481 248.48190308 C53.05905419 244.26006529 53.06089414 240.038248 53.06030273 235.81640625 C53.06020165 230.43229326 53.07379443 225.04831375 53.09107494 219.66423225 C53.10225631 215.50838634 53.10421998 211.35257191 53.10369301 207.19671249 C53.10486618 205.21379008 53.10925036 203.23086666 53.11702538 201.24795914 C53.16374832 188.08841526 52.75374024 175.59119366 48.5 163 C48.24726318 162.25137695 47.99452637 161.50275391 47.73413086 160.73144531 C44.17714974 150.6870099 39.36160831 141.19732429 34.61376953 131.67529297 C33.1079656 128.65480506 31.61333694 125.62925851 30.12353516 122.60087585 C22.40633495 106.92355902 14.39308596 91.44751499 5.875 76.1875 C4.69512561 74.05999947 3.51544603 71.93239089 2.3359375 69.8046875 C-7.09197305 52.81883259 -7.09197305 52.81883259 -17.125 36.1875 C-17.49431641 35.59485352 -17.86363281 35.00220703 -18.24414062 34.39160156 C-23.32374976 26.32220545 -27.85090834 20.27886389 -37.125 17.1875 C-38.80237566 17.12857992 -40.48208549 17.12640413 -42.16015625 17.16015625 C-43.13404297 17.17240234 -44.10792969 17.18464844 -45.11132812 17.19726562 C-47.16608501 17.23249003 -49.22077937 17.2715675 -51.27539062 17.31445312 C-52.73428711 17.33088867 -52.73428711 17.33088867 -54.22265625 17.34765625 C-55.11476807 17.36449463 -56.00687988 17.38133301 -56.92602539 17.39868164 C-59.125 17.1875 -59.125 17.1875 -61.125 15.1875 C-61.25 11.5625 -61.25 11.5625 -61.125 8.1875 C-55.59173968 6.42672636 -50.22746634 5.57346708 -44.46484375 4.93359375 C-43.10269493 4.77492577 -43.10269493 4.77492577 -41.71302795 4.61305237 C-38.8301202 4.27821741 -35.94638811 3.95127315 -33.0625 3.625 C-30.1752367 3.2936431 -27.28817334 2.96063096 -24.40126038 2.62623596 C-22.61067959 2.41933116 -20.81986621 2.21442638 -19.02879333 2.01182556 C-1.53104137 0.00978927 -1.53104137 0.00978927 0 0 Z " fill="#FCFCFC" transform="translate(181.125,110.8125)"/>
</svg>
