<?xml version="1.0" encoding="UTF-8"?>
<svg version="1.1" xmlns="http://www.w3.org/2000/svg" width="512" height="512">
<path d="M0 0 C168.96 0 337.92 0 512 0 C512 168.96 512 337.92 512 512 C343.04 512 174.08 512 0 512 C0 343.04 0 174.08 0 0 Z " fill="#000000" transform="translate(0,0)"/>
<path d="M0 0 C0.84175781 -0.03738281 1.68351562 -0.07476562 2.55078125 -0.11328125 C6.7693452 -0.17307192 8.84631048 -0.10352962 12.328125 2.4453125 C14.75171388 5.71454211 16.83157878 9.04553737 18.75 12.625 C19.36584961 13.75240601 19.36584961 13.75240601 19.99414062 14.90258789 C25.99701362 25.99695349 31.6931152 37.25877398 37.4453125 48.484375 C40.54526146 54.53377419 43.68720163 60.55884592 46.875 66.5625 C55.20189783 82.31373591 62.98956759 98.2875005 70.43920898 114.47143555 C74.4830871 123.24044856 78.65144532 131.94151085 82.875 140.625 C87.65057968 150.44669832 92.28007102 160.30110939 96.5 170.375 C99.35411023 166.95568084 101.7021427 163.51272369 103.8984375 159.640625 C104.53539551 158.52212158 105.17235352 157.40361816 105.82861328 156.2512207 C106.51089097 155.04256444 107.19301598 153.83382199 107.875 152.625 C108.5893841 151.36596106 109.30406962 150.10709309 110.01904297 148.84838867 C116.3208804 137.74138034 122.56029449 126.59918266 128.78222656 115.44726562 C130.51284064 112.3520343 132.25132294 109.26135131 133.9921875 106.171875 C141.75867712 92.37835593 149.37201367 78.51004528 156.81396484 64.53857422 C157.92844267 62.44743554 159.04590567 60.3578848 160.16650391 58.27001953 C165.34304371 48.61755914 170.47166723 38.96595647 174.75 28.875 C175.0380249 28.21105225 175.3260498 27.54710449 175.62280273 26.86303711 C177.36327261 22.56914021 177.7613398 18.98408367 177.5 14.375 C173.89992127 13.23713978 170.59321913 13.30542203 166.8359375 13.3828125 C165.54945313 13.39957031 164.26296875 13.41632813 162.9375 13.43359375 C160.8985343 13.4646515 158.85997453 13.50033938 156.82128906 13.54638672 C154.84724632 13.58859955 152.87281112 13.61100717 150.8984375 13.6328125 C149.12992432 13.66592529 149.12992432 13.66592529 147.32568359 13.69970703 C146.39320801 13.59255371 145.46073242 13.48540039 144.5 13.375 C142.19836118 9.92254176 142.15509678 8.42761287 142.5 4.375 C145.12338009 1.75161991 146.99327466 2.12996954 150.56506348 2.10394287 C151.41499878 2.10799133 152.26493408 2.11203979 153.140625 2.11621094 C154.03503296 2.1127063 154.92944092 2.10920166 155.85095215 2.10559082 C158.8173796 2.09676406 161.78356998 2.10262599 164.75 2.109375 C166.80501349 2.10802862 168.86002667 2.10608832 170.91503906 2.10357666 C175.22594225 2.10062412 179.53676267 2.10492724 183.84765625 2.11425781 C189.38298124 2.12565239 194.9181123 2.11909362 200.45343018 2.10711288 C204.69809438 2.09989781 208.94271235 2.10218059 213.18737793 2.10736847 C215.22880069 2.10870594 217.2702276 2.10705385 219.31164551 2.10240936 C222.16100237 2.09734993 225.01004188 2.10504614 227.859375 2.11621094 C228.7093103 2.11216248 229.55924561 2.10811401 230.43493652 2.10394287 C236.27147215 2.14647215 236.27147215 2.14647215 238.5 4.375 C238.80078125 6.25 238.80078125 6.25 238.8125 8.375 C238.82925781 9.07625 238.84601563 9.7775 238.86328125 10.5 C238.68345703 11.428125 238.68345703 11.428125 238.5 12.375 C235.17135857 14.59409429 234.11457873 14.61494447 230.23828125 14.61328125 C228.68270508 14.63745117 228.68270508 14.63745117 227.09570312 14.66210938 C224.92649091 14.67888496 222.75715776 14.68430393 220.58789062 14.67773438 C213.63575872 14.81085117 208.76050581 15.62855523 203.5 20.375 C201.67774465 22.52316416 200.26433246 24.38931003 198.8125 26.75 C198.40225586 27.3901001 197.99201172 28.0302002 197.56933594 28.68969727 C192.72356533 36.38015467 188.33970944 44.35273239 183.9140625 52.2890625 C180.55775385 58.29883834 177.10505309 64.24872437 173.625 70.1875 C163.13781812 88.10662335 152.78669607 106.10318293 142.49533081 124.13534546 C138.21154645 131.6406649 133.91682865 139.13943429 129.59814453 146.62475586 C128.33757916 148.81036939 127.07938818 150.9973543 125.82373047 153.18579102 C122.99373723 158.10885545 120.13382368 163.00287618 117.15234375 167.8359375 C116.63841064 168.68212646 116.12447754 169.52831543 115.5949707 170.40014648 C114.65889911 171.93632377 113.7071643 173.4631435 112.73510742 174.97680664 C107.66028501 183.37118311 108.34984529 193.14344502 108.35473633 202.68896484 C108.35137772 203.65479996 108.3480191 204.62063507 108.34455872 205.61573792 C108.33514819 208.7724846 108.33311079 211.92917771 108.33203125 215.0859375 C108.32881237 217.30351787 108.32544783 219.52109804 108.32194519 221.73867798 C108.31597908 226.37331637 108.31410275 231.00793617 108.31469727 235.64257812 C108.31479888 241.55207883 108.30113642 247.46145937 108.28392506 253.37093163 C108.27275444 257.94713885 108.27077959 262.52331744 108.27130699 267.0995369 C108.2701349 269.27700846 108.26575692 271.45448096 108.25797462 273.63193893 C107.29014366 293.33363039 107.29014366 293.33363039 113.5 311.375 C117.01194124 314.06611184 121.03005761 313.59789027 125.2578125 313.5 C126.00207489 313.49242676 126.74633728 313.48485352 127.51315308 313.47705078 C129.88400696 313.45267086 132.25436825 313.4154003 134.625 313.375 C137.75259053 313.32193646 140.8799428 313.28190968 144.0078125 313.25 C145.08906906 313.22510498 145.08906906 313.22510498 146.19216919 313.19970703 C147.96232406 313.18219106 149.73287973 313.26992372 151.5 313.375 C153.5 315.375 153.5 315.375 153.8125 318.25 C153.46077947 321.76720532 152.95162988 322.89111224 150.5 325.375 C148.0933609 325.87836456 148.0933609 325.87836456 145.18615723 325.88293457 C143.53309319 325.89985352 143.53309319 325.89985352 141.84663391 325.91711426 C140.63718613 325.90901733 139.42773834 325.90092041 138.18164062 325.89257812 C136.90830368 325.8995874 135.63496674 325.90659668 134.32304382 325.91381836 C130.8291753 325.93207022 127.33577866 325.92497694 123.84190178 325.91230202 C120.18776033 325.90218379 116.53365962 325.9115644 112.8795166 325.91784668 C106.74268327 325.92512656 100.6060424 325.9155266 94.46923828 325.89648438 C87.37145326 325.87471478 80.27412781 325.88176592 73.17635393 325.90379 C67.08538644 325.92193445 60.99455739 325.92450707 54.90357161 325.91403532 C51.26435785 325.90779505 47.6253602 325.90697915 43.98616028 325.92018127 C39.92994919 325.93386801 35.87453194 325.91490595 31.81835938 325.89257812 C30.60891159 325.90067505 29.39946381 325.90877197 28.15336609 325.91711426 C27.05132339 325.90583496 25.9492807 325.89455566 24.81384277 325.88293457 C23.85446556 325.88142647 22.89508835 325.87991837 21.9066391 325.87836456 C19.5 325.375 19.5 325.375 17.66007233 323.50731659 C16.5 321.375 16.5 321.375 16.625 318.75 C17.5 316.375 17.5 316.375 20.5 314.375 C23.35986328 314.10375977 23.35986328 314.10375977 26.8203125 314.06640625 C28.7075 314.02870117 28.7075 314.02870117 30.6328125 313.99023438 C33.27078828 313.95538832 35.90881334 313.92407367 38.546875 313.89648438 C48.94363678 313.93704893 48.94363678 313.93704893 58.5 310.375 C61.87784852 306.04972997 61.92785452 301.98781015 61.88818359 296.71118164 C61.89344055 295.84846146 61.89869751 294.98574127 61.90411377 294.09687805 C61.9173169 291.24278641 61.90856137 288.38925371 61.8984375 285.53515625 C61.90046126 283.53234247 61.90337522 281.52952941 61.90713501 279.52671814 C61.9115614 275.31762717 61.90512867 271.10872698 61.89111328 266.8996582 C61.87420876 261.56920008 61.88373998 256.23920145 61.90183067 250.90876102 C61.91282169 246.7619245 61.90915004 242.61519151 61.9014473 238.46835136 C61.89947737 236.50765361 61.90178848 234.54694574 61.90888596 232.58625984 C61.9382595 222.17125278 61.53874418 211.97083513 60.15869141 201.63842773 C60.04200293 200.76075524 59.92531445 199.88308275 59.80508995 198.97881413 C57.1682013 181.01693559 49.28403761 164.88957174 41.22265625 148.81445312 C39.72084673 145.81594227 38.23348411 142.81107542 36.75308228 139.80198669 C29.4886215 125.03984156 21.96539128 110.45752679 13.98144531 96.06884766 C12.44201455 93.26955974 10.93231521 90.45592102 9.4296875 87.63671875 C3.5586936 76.63632062 -2.51318991 65.78489223 -8.875 55.0625 C-9.52887695 53.96010986 -10.18275391 52.85771973 -10.85644531 51.72192383 C-20.77928395 32.58267033 -20.77928395 32.58267033 -37.02270508 19.93798828 C-42.22545478 18.75561509 -47.56232918 18.87427524 -52.875 18.8125 C-55.21628861 18.77818144 -57.55747598 18.73564478 -59.8984375 18.68359375 C-60.92630371 18.67126709 -61.95416992 18.65894043 -63.01318359 18.64624023 C-65.5 18.375 -65.5 18.375 -67.5 16.375 C-67.75 12.875 -67.75 12.875 -67.5 9.375 C-65.17550968 7.05050968 -64.42713494 7.0220235 -61.2578125 6.62890625 C-59.92532471 6.4585083 -59.92532471 6.4585083 -58.56591797 6.28466797 C-57.11016357 6.11281982 -57.11016357 6.11281982 -55.625 5.9375 C-54.62227051 5.81262207 -53.61954102 5.68774414 -52.58642578 5.55908203 C-42.9811176 4.38355081 -33.35749573 3.36203745 -23.73095703 2.37719727 C-22.60028809 2.26045654 -21.46961914 2.14371582 -20.3046875 2.0234375 C-18.80397705 1.87140869 -18.80397705 1.87140869 -17.27294922 1.71630859 C-14.52033206 1.41379479 -14.52033206 1.41379479 -11.91650391 0.8515625 C-7.95912755 0.07112214 -4.02295346 0.06776798 0 0 Z " fill="#FCFCFC" transform="translate(170.5,93.625)"/>
</svg>
